<?xml version="1.0" standalone="no"?>
<!DOCTYPE svg PUBLIC "-//W3C//DTD SVG 20010904//EN"
 "http://www.w3.org/TR/2001/REC-SVG-20010904/DTD/svg10.dtd">
<svg version="1.0" xmlns="http://www.w3.org/2000/svg"
 width="512.000000pt" height="512.000000pt" viewBox="0 0 512.000000 512.000000"
 preserveAspectRatio="xMidYMid meet">

<g transform="translate(0.000000,512.000000) scale(0.100000,-0.100000)"
fill="#000000" stroke="none">
<path d="M2061 5105 c-111 -25 -238 -95 -317 -173 -116 -116 -174 -237 -195
-404 -20 -167 2 -300 76 -455 120 -248 404 -516 779 -734 163 -95 177 -92 451
86 302 196 536 433 640 648 74 155 96 288 76 455 -29 235 -154 418 -353 517
-199 98 -398 99 -595 3 l-63 -31 -62 31 c-35 17 -88 38 -118 47 -77 23 -239
28 -319 10z m290 -320 c29 -14 70 -41 90 -60 79 -71 158 -69 246 7 74 64 123
81 228 82 79 1 98 -2 153 -28 79 -37 152 -114 183 -194 32 -83 32 -252 0 -334
-51 -131 -191 -302 -356 -435 -103 -83 -313 -223 -334 -222 -9 0 -46 19 -83
42 -294 183 -535 427 -609 615 -32 81 -32 251 0 334 39 100 123 177 236 215
63 21 182 11 246 -22z"/>
<path d="M1162 3310 c-18 -11 -41 -34 -52 -52 -19 -32 -20 -52 -20 -597 l0
-563 -35 -59 c-120 -196 -200 -456 -214 -694 -3 -63 -10 -109 -16 -109 -6 1
-99 23 -208 49 -221 52 -246 53 -302 4 -63 -56 -69 -141 -14 -204 36 -41 49
-46 239 -91 85 -20 160 -39 167 -43 6 -3 -25 -17 -69 -30 -94 -29 -141 -66
-157 -127 -14 -51 0 -102 37 -139 58 -58 95 -58 277 0 76 25 144 45 151 45 6
0 16 -12 23 -27 29 -65 146 -226 213 -295 146 -148 357 -277 538 -328 166 -46
230 -50 839 -50 467 0 593 3 678 16 338 50 648 247 837 532 35 53 70 109 77
125 7 15 17 27 23 27 7 0 75 -20 151 -45 182 -58 219 -58 277 0 37 37 51 88
37 139 -16 61 -63 98 -157 127 -44 13 -75 27 -69 30 7 4 84 24 172 44 88 21
169 42 180 48 101 49 121 174 40 246 -56 48 -82 48 -292 -2 -103 -25 -197 -47
-208 -49 -19 -3 -20 4 -26 107 -14 238 -94 498 -214 695 l-36 59 2 564 c1 376
-2 570 -9 583 -6 10 -24 32 -41 48 -33 32 -106 46 -151 28 -14 -5 -198 -161
-409 -346 l-384 -336 -478 0 -478 0 -183 157 c-101 86 -261 227 -356 313 -245
220 -245 220 -300 220 -29 0 -59 -8 -80 -20z m693 -872 c50 -42 103 -82 119
-87 18 -7 218 -11 587 -11 456 0 566 3 592 14 18 8 154 121 302 252 l270 238
5 -420 5 -419 48 -77 c91 -146 153 -308 182 -475 17 -96 22 -280 9 -292 -5 -5
-51 -19 -103 -31 -129 -31 -163 -61 -169 -148 -7 -96 25 -135 140 -171 l37
-12 -37 -61 c-49 -79 -170 -208 -248 -264 -78 -56 -210 -118 -311 -147 -77
-21 -89 -22 -713 -22 -564 0 -643 2 -708 17 -83 19 -206 70 -290 120 -74 44
-247 217 -294 295 l-37 62 37 12 c115 36 147 75 140 171 -6 87 -40 117 -169
148 -52 12 -98 26 -103 31 -13 12 -8 197 9 295 29 165 96 337 189 484 l41 65
3 417 3 417 187 -162 c103 -90 228 -197 277 -239z"/>
<path d="M2270 1368 c-52 -36 -72 -69 -72 -120 0 -49 18 -93 48 -119 11 -9 52
-33 92 -53 70 -35 73 -39 67 -64 -19 -79 -90 -139 -173 -149 -43 -5 -60 -1
-107 21 -67 34 -102 87 -115 176 -15 105 -79 160 -171 147 -136 -18 -167 -169
-74 -365 132 -280 501 -368 748 -179 l47 37 48 -37 c247 -190 614 -102 747
179 54 114 69 221 39 284 -46 96 -186 112 -250 29 -17 -22 -28 -55 -34 -95
-13 -89 -48 -142 -115 -176 -47 -22 -64 -26 -106 -21 -84 10 -155 71 -174 149
-6 25 -2 29 77 70 101 53 128 87 128 164 0 42 -5 59 -26 84 -63 74 -120 77
-243 15 l-89 -44 -92 44 c-105 52 -150 57 -200 23z"/>
</g>
</svg>
